<?xml version="1.0" encoding="iso-8859-1"?>
<!-- Generator: Adobe Illustrator 19.0.0, SVG Export Plug-In . SVG Version: 6.00 Build 0)  -->
<svg version="1.1" id="Capa_1" xmlns="http://www.w3.org/2000/svg" xmlns:xlink="http://www.w3.org/1999/xlink" x="0px" y="0px"
	 viewBox="0 0 522.462 522.462" style="enable-background:new 0 0 522.462 522.462;" xml:space="preserve">
<g>
	<g>
		<path d="M430.043,276.273c1.676-4.093,0.74-8.751-2.351-11.886L231.769,68.464c-2.133-2.09-4.92-3.157-7.706-3.157V54.423
			C224.063,24.403,199.659,0,169.639,0s-54.423,24.403-54.423,54.423v115.225l-83.899,83.877c-21.225,21.247-21.225,55.773,0,76.976
			l101.706,101.706c10.297,10.297,23.946,15.935,38.488,15.935s28.191-5.66,38.488-15.935L359.184,283h60.801
			C424.383,283,428.367,280.344,430.043,276.273z M202.293,82.571l-65.308,65.308V54.423c0-18.025,14.651-32.654,32.654-32.654
			s32.654,14.629,32.654,32.654C202.293,54.423,202.293,82.571,202.293,82.571z M451.072,331.763
			c-3.962-6.509-14.672-6.509-18.613,0c-5.725,9.448-56.012,93.194-56.012,125.391c0,36.006,29.301,65.308,65.308,65.308
			s65.308-29.301,65.308-65.308C507.063,424.957,456.797,341.211,451.072,331.763z"/>
	</g>
</g>
<g>
</g>
<g>
</g>
<g>
</g>
<g>
</g>
<g>
</g>
<g>
</g>
<g>
</g>
<g>
</g>
<g>
</g>
<g>
</g>
<g>
</g>
<g>
</g>
<g>
</g>
<g>
</g>
<g>
</g>
</svg>
